<?xml version="1.0" ?><svg id="Capa_1" style="enable-background:new 0 0 512 512;" version="1.1" viewBox="0 0 512 512"
	xml:space="preserve" xmlns="http://www.w3.org/2000/svg" xmlns:xlink="http://www.w3.org/1999/xlink">
	<style type="text/css">
		.st0 {
			fill: #110DC5;
		}
	</style>
	<g>
		<path class="st0"
			d="M510.2,262c0.2-0.3,0.4-0.6,0.5-0.9c0.2-0.3,0.3-0.7,0.4-1c0.1-0.3,0.3-0.7,0.4-1c0.1-0.3,0.2-0.7,0.2-1   c0.1-0.3,0.1-0.7,0.2-1c0-0.4,0-0.7,0-1.1c0-0.3,0-0.7,0-1c0-0.4-0.1-0.7-0.2-1.1c-0.1-0.3-0.1-0.7-0.2-1c-0.1-0.3-0.2-0.7-0.4-1   c-0.1-0.3-0.3-0.7-0.4-1c-0.2-0.3-0.3-0.6-0.5-0.9c-0.2-0.3-0.4-0.7-0.7-1c-0.1-0.1-0.1-0.2-0.2-0.3C416,142,291.8,133.7,256,133.7   c-141.7,0-229.7,88-253.3,115c-0.1,0.1-0.1,0.2-0.2,0.3c-0.3,0.3-0.5,0.7-0.7,1c-0.2,0.3-0.4,0.6-0.5,0.8c-0.2,0.3-0.3,0.7-0.5,1   c-0.1,0.3-0.3,0.6-0.4,1c-0.1,0.3-0.2,0.7-0.2,1c-0.1,0.3-0.1,0.7-0.2,1c0,0.4,0,0.7,0,1.1c0,0.4,0,0.7,0,1.1c0,0.4,0.1,0.7,0.2,1   c0.1,0.4,0.1,0.7,0.2,1c0.1,0.3,0.2,0.6,0.4,1c0.1,0.4,0.3,0.7,0.5,1c0.2,0.3,0.3,0.6,0.5,0.8c0.2,0.3,0.4,0.7,0.7,1   c0.1,0.1,0.1,0.2,0.2,0.3C96,370,220.2,378.3,256,378.3c141.8,0,229.7-88,253.3-115c0.1-0.1,0.1-0.2,0.2-0.3   C509.8,262.7,510,262.4,510.2,262z M256,356.1c-23.2,0-141.2-5-229.9-100.1C52.4,228.5,133.6,155.9,256,155.9   c23.2,0,141.2,5,229.9,100.1C459.6,283.4,378.4,356.1,256,356.1z" />
		<path class="st0"
			d="M256,180.1c-41.9,0-75.9,34.1-75.9,75.9s34.1,75.9,75.9,75.9c10.8,0,21.2-2.2,31-6.6c5.6-2.5,8.1-9.1,5.6-14.7   c-2.5-5.6-9-8.1-14.7-5.6c-6.9,3.1-14.3,4.7-21.9,4.7c-29.6,0-53.7-24.1-53.7-53.7s24.1-53.7,53.7-53.7s53.7,24.1,53.7,53.7   c0,7.3-1.4,14.4-4.3,21.1c-2.4,5.6,0.2,12.2,5.8,14.6c5.6,2.4,12.2-0.2,14.6-5.8c4-9.4,6.1-19.5,6.1-29.8   C331.9,214.1,297.9,180.1,256,180.1z" />
	</g>
</svg>